<?xml version="1.0" standalone="no"?>
<!DOCTYPE svg PUBLIC "-//W3C//DTD SVG 20010904//EN"
 "http://www.w3.org/TR/2001/REC-SVG-20010904/DTD/svg10.dtd">
<svg version="1.0" xmlns="http://www.w3.org/2000/svg"
 width="374.000000pt" height="374.000000pt" viewBox="0 0 374.000000 374.000000"
 preserveAspectRatio="xMidYMid meet">
<metadata>
Created by potrace 1.11, written by Peter Selinger 2001-2013
</metadata>
<g transform="translate(0.000000,374.000000) scale(0.100000,-0.100000)"
fill="#000000" stroke="none">
<path d="M22 3298 c11 -29 30 -80 43 -113 12 -33 117 -312 233 -620 115 -308
343 -913 505 -1345 l294 -785 93 0 92 0 70 188 70 187 48 -46 c154 -149 395
-282 603 -333 127 -31 142 -33 307 -36 235 -4 400 32 607 132 322 156 570 425
708 769 31 76 35 97 35 175 l0 89 -657 -2 -658 -3 0 -70 c-1 -38 1 -76 3 -82
3 -10 126 -13 569 -13 l564 0 -7 -22 c-13 -43 -77 -163 -128 -243 -123 -188
-320 -361 -516 -452 -45 -21 -216 -83 -225 -82 -3 0 -31 -5 -63 -12 -34 -8
-122 -13 -217 -13 -131 0 -177 4 -250 22 -204 51 -361 129 -510 256 -115 98
-205 206 -205 245 0 16 192 545 220 606 5 11 130 343 278 739 181 483 275 722
287 729 24 13 263 18 343 6 106 -15 124 -19 216 -50 157 -52 318 -151 456
-278 l75 -69 50 46 c28 26 53 51 57 58 15 23 -187 198 -322 280 -228 139 -424
191 -730 193 l-165 1 -78 -207 c-43 -115 -79 -212 -81 -218 -2 -5 -9 -23 -16
-40 -6 -16 -16 -41 -20 -55 -4 -14 -84 -227 -178 -475 -93 -247 -272 -722
-397 -1055 -125 -333 -230 -608 -234 -613 -5 -5 -621 1619 -767 2023 -7 19
-64 170 -126 335 l-113 300 -92 3 -91 3 20 -53z"/>
</g>
</svg>
